<svg xmlns="http://www.w3.org/2000/svg" fill="none" viewBox="0 0 500 250"><path stroke="#DFE4EA" stroke-linecap="round" stroke-linejoin="round" stroke-width="5.5" d="M424 117l8 8-8 8M75 133l-8-8 8-8"/><rect width="315" height="161" x="92" y="45" fill="#DFE4EA" rx="21"/><path stroke="#B7BCC2" stroke-linecap="round" stroke-linejoin="round" stroke-width="3.667" d="M256.375 116.333h.023M260.958 107.167h-22.916a6.875 6.875 0 00-6.875 6.875v22.916a6.875 6.875 0 006.875 6.875h22.916a6.875 6.875 0 006.875-6.875v-22.916a6.875 6.875 0 00-6.875-6.875z"/><path stroke="#B7BCC2" stroke-linecap="round" stroke-linejoin="round" stroke-width="3.667" d="M231.167 132.375l9.166-9.167c1.045-1.005 2.231-1.535 3.438-1.535 1.207 0 2.392.53 3.437 1.535l11.459 11.459M254.083 130.083l2.292-2.292c1.045-1.005 2.231-1.535 3.438-1.535 1.206 0 2.392.53 3.437 1.535l4.583 4.584"/></svg>